<mxfile host="app.diagrams.net" modified="2024-04-12T18:19:22.147Z" agent="Mozilla/5.0 (Windows NT 10.0; Win64; x64) AppleWebKit/537.36 (KHTML, like Gecko) Chrome/121.0.0.0 Safari/537.36 OPR/107.0.0.0" etag="I2p7wZp7aw72fUUtS2RF" version="24.2.3" type="device">
  <diagram name="Página-1" id="12gXqFjs8iaSPuwnymVz">
    <mxGraphModel dx="950" dy="523" grid="1" gridSize="10" guides="1" tooltips="1" connect="1" arrows="1" fold="1" page="1" pageScale="1" pageWidth="827" pageHeight="1169" math="0" shadow="0">
      <root>
        <mxCell id="0" />
        <mxCell id="1" parent="0" />
        <mxCell id="LiN6x94tXuxNAzRbqBya-9" style="edgeStyle=orthogonalEdgeStyle;rounded=0;orthogonalLoop=1;jettySize=auto;html=1;exitX=0;exitY=0.405;exitDx=0;exitDy=0;entryX=1;entryY=0.25;entryDx=0;entryDy=0;exitPerimeter=0;" edge="1" parent="1" source="fpaQCawp82h871H6O31p-1" target="fpaQCawp82h871H6O31p-2">
          <mxGeometry relative="1" as="geometry" />
        </mxCell>
        <mxCell id="fpaQCawp82h871H6O31p-1" value="&amp;nbsp;Software de&amp;nbsp;&lt;div&gt;visualización de imágenes DICOM&lt;/div&gt;" style="ellipse;whiteSpace=wrap;html=1;aspect=fixed;" parent="1" vertex="1">
          <mxGeometry x="480" y="310" width="150" height="150" as="geometry" />
        </mxCell>
        <mxCell id="fpaQCawp82h871H6O31p-2" value="Radiólogos, cardiólogos y tecnólogos médicos&amp;nbsp;" style="rounded=0;whiteSpace=wrap;html=1;" parent="1" vertex="1">
          <mxGeometry x="70" y="355" width="120" height="60" as="geometry" />
        </mxCell>
        <mxCell id="fpaQCawp82h871H6O31p-3" value="" style="endArrow=classic;html=1;rounded=0;exitX=1;exitY=0.75;exitDx=0;exitDy=0;entryX=0.016;entryY=0.593;entryDx=0;entryDy=0;entryPerimeter=0;" parent="1" source="fpaQCawp82h871H6O31p-2" target="fpaQCawp82h871H6O31p-1" edge="1">
          <mxGeometry width="50" height="50" relative="1" as="geometry">
            <mxPoint x="110" y="370" as="sourcePoint" />
            <mxPoint x="470" y="398" as="targetPoint" />
          </mxGeometry>
        </mxCell>
        <mxCell id="fpaQCawp82h871H6O31p-4" value="Solicitud de visualizacion e imagenes" style="edgeLabel;html=1;align=center;verticalAlign=middle;resizable=0;points=[];rotation=0;" parent="fpaQCawp82h871H6O31p-3" vertex="1" connectable="0">
          <mxGeometry x="-0.0798" relative="1" as="geometry">
            <mxPoint x="11" y="20" as="offset" />
          </mxGeometry>
        </mxCell>
        <mxCell id="fpaQCawp82h871H6O31p-17" value="" style="endArrow=classic;html=1;rounded=0;entryX=0.5;entryY=1;entryDx=0;entryDy=0;exitX=0.5;exitY=0;exitDx=0;exitDy=0;" parent="1" source="fpaQCawp82h871H6O31p-1" target="LiN6x94tXuxNAzRbqBya-7" edge="1">
          <mxGeometry width="50" height="50" relative="1" as="geometry">
            <mxPoint x="460" y="500" as="sourcePoint" />
            <mxPoint x="640" y="495" as="targetPoint" />
          </mxGeometry>
        </mxCell>
        <mxCell id="fpaQCawp82h871H6O31p-18" value="Imágenes procesadas" style="edgeLabel;html=1;align=center;verticalAlign=middle;resizable=0;points=[];" parent="fpaQCawp82h871H6O31p-17" vertex="1" connectable="0">
          <mxGeometry x="0.0756" y="-1" relative="1" as="geometry">
            <mxPoint x="-216" y="115" as="offset" />
          </mxGeometry>
        </mxCell>
        <mxCell id="LiN6x94tXuxNAzRbqBya-7" value="Interfaz gráfica" style="rounded=0;whiteSpace=wrap;html=1;" vertex="1" parent="1">
          <mxGeometry x="495" y="120" width="120" height="60" as="geometry" />
        </mxCell>
        <mxCell id="LiN6x94tXuxNAzRbqBya-10" value="Información en pantalla" style="edgeLabel;html=1;align=center;verticalAlign=middle;resizable=0;points=[];" vertex="1" connectable="0" parent="1">
          <mxGeometry x="619.9983671965323" y="249.99683961735002" as="geometry" />
        </mxCell>
      </root>
    </mxGraphModel>
  </diagram>
</mxfile>
